<svg id="Layer_1" data-name="Layer 1" xmlns="http://www.w3.org/2000/svg" xmlns:xlink="http://www.w3.org/1999/xlink" viewBox="0 0 618.04 260.83"><defs><style>.cls-1{fill:none;}.cls-2{fill:#f79225;}.cls-3{fill:#0e2142;}.cls-4{fill:#fff;}.cls-5{clip-path:url(#clip-path);}.cls-6{fill:url(#linear-gradient);}.cls-7{fill:url(#linear-gradient-2);}.cls-8{fill:url(#linear-gradient-3);}.cls-9{clip-path:url(#clip-path-2);}.cls-10{fill:url(#linear-gradient-4);}.cls-11{fill:url(#linear-gradient-5);}.cls-12{fill:url(#linear-gradient-6);}.cls-13{fill:#0d2141;}</style><clipPath id="clip-path" transform="translate(-301.64 -300.05)"><path class="cls-1" d="M412.82,398.44l80.3,83s-80.3,94.75-186.18,4.36l80.3-87.37"/></clipPath><linearGradient id="linear-gradient" x1="358.72" y1="398.44" x2="441.33" y2="398.44" gradientUnits="userSpaceOnUse"><stop offset="0" stop-color="#fff346"/><stop offset="1" stop-color="#ee5853"/></linearGradient><linearGradient id="linear-gradient-2" x1="331.63" y1="398.44" x2="468.43" y2="398.44" xlink:href="#linear-gradient"/><linearGradient id="linear-gradient-3" x1="301.64" y1="398.44" x2="498.42" y2="398.44" xlink:href="#linear-gradient"/><clipPath id="clip-path-2" transform="translate(-301.64 -300.05)"><path class="cls-1" d="M387.24,398.44l-80.3-83s80.3-94.76,186.17-4.37l-80.29,87.37"/></clipPath><linearGradient id="linear-gradient-4" x1="358.72" y1="398.44" x2="441.33" y2="398.44" xlink:href="#linear-gradient"/><linearGradient id="linear-gradient-5" x1="331.63" y1="398.44" x2="468.42" y2="398.44" xlink:href="#linear-gradient"/><linearGradient id="linear-gradient-6" x1="301.64" y1="398.44" x2="498.42" y2="398.44" xlink:href="#linear-gradient"/></defs><path class="cls-2" d="M522.54,507.25H509.1l-2.52,7.9h-6.1l11.7-35.84h7.28l11.65,35.84h-6.05ZM521,502.49l-3-9.35L516,485.53h-.39l-2,7.61-3,9.35Z" transform="translate(-301.64 -300.05)"/><path class="cls-2" d="M584.76,479.31v35.84h-5.44l-17.47-26h-.33l.72,9.69v16.35h-6V479.31h5.43l17.47,26h.39l-.84-9.69.06-16.35Z" transform="translate(-301.64 -300.05)"/><path class="cls-2" d="M631.85,507.25H618.41l-2.52,7.9h-6.1l11.7-35.84h7.28l11.65,35.84h-6Zm-1.51-4.76-3-9.35-2.07-7.61h-.39l-2,7.61-3,9.35Z" transform="translate(-301.64 -300.05)"/><path class="cls-2" d="M686.17,515.15H665.51V479.31h6v30.91h14.67Z" transform="translate(-301.64 -300.05)"/><path class="cls-2" d="M720.27,491.91l6.22-12.6h6.66L721.28,502v13.16h-6V502l-11.81-22.68h6.66l6.16,12.6,1.91,4.26h.28Z" transform="translate(-301.64 -300.05)"/><path class="cls-2" d="M781.26,479.31v4.93h-9.63v30.91h-6V484.24H756v-4.93Z" transform="translate(-301.64 -300.05)"/><path class="cls-2" d="M813.46,515.15h-6V479.31h6Z" transform="translate(-301.64 -300.05)"/><path class="cls-2" d="M857.42,510.61A16.22,16.22,0,0,0,867.89,507v5a18.53,18.53,0,0,1-11.43,3.81c-9.57,0-16.46-7.56-16.46-19.66,0-11,6.27-17.42,17.08-17.42a20.91,20.91,0,0,1,11.37,3.25v5.49A19.77,19.77,0,0,0,857,483.85c-7.51,0-10.65,5.09-10.65,12.6C846.38,505.57,850.25,510.61,857.42,510.61Z" transform="translate(-301.64 -300.05)"/><path class="cls-2" d="M911.9,505.52c0-2-1.56-3.7-5.32-5.15l-5.43-2.08c-4.25-1.68-8.57-4.36-8.62-10-.11-5.88,4.87-9.47,12.15-9.52a25.78,25.78,0,0,1,11.2,2.07v5.32a27,27,0,0,0-11-2.3c-4.31.11-6.44,1.91-6.38,4.48.06,2.35,2,3.92,5.32,5.21l5.88,2.3c4.76,1.84,8.06,4.59,8.18,9.46.05,6.5-5.72,10.3-12.55,10.36-4.53.06-9-1-11.87-3l-.06-5.54c2.75,2.24,7.84,3.53,11.76,3.47S912,509.05,911.9,505.52Z" transform="translate(-301.64 -300.05)"/><path class="cls-3" d="M626.19,337v1.61a2.57,2.57,0,0,1-2.57,2.57h-7.47a2.57,2.57,0,0,0-2.12,1.12l-44.57,64.88a2.62,2.62,0,0,0-.45,1.46v44.2a2.59,2.59,0,0,0,2.58,2.58h11.65a2.57,2.57,0,0,1,2.57,2.57v2.28a2.58,2.58,0,0,1-2.57,2.58h-44.9a2.58,2.58,0,0,1-2.57-2.58v-2.28a2.57,2.57,0,0,1,2.57-2.57h11.09a2.58,2.58,0,0,0,2.57-2.58v-45a2.49,2.49,0,0,0-.34-1.27l-36.57-64.12a2.58,2.58,0,0,0-2.24-1.31H501.63a2.58,2.58,0,0,1-2.58-2.57V337a2.58,2.58,0,0,1,2.58-2.57h46.16a2.58,2.58,0,0,1,2.58,2.57v1.61a2.58,2.58,0,0,1-2.58,2.57h-9.34a2.57,2.57,0,0,0-2.26,3.81l27.52,50.52a2.58,2.58,0,0,0,4.43.16l32.64-50.51a2.58,2.58,0,0,0-2.17-4h-9.68a2.58,2.58,0,0,1-2.58-2.57V337a2.58,2.58,0,0,1,2.58-2.57h34.69A2.57,2.57,0,0,1,626.19,337Z" transform="translate(-301.64 -300.05)"/><path class="cls-3" d="M794,336.63V339a2.14,2.14,0,0,1-2.15,2.14H778.21a2.15,2.15,0,0,0-2.15,2.15V453.22a2.15,2.15,0,0,0,2.15,2.15h12a2.14,2.14,0,0,1,2.14,2.14v3.14a2.14,2.14,0,0,1-2.14,2.15h-45.9a2.15,2.15,0,0,1-2.15-2.15v-3.14a2.15,2.15,0,0,1,2.15-2.14h13.09a2.14,2.14,0,0,0,2.14-2.15L760,351.08a2.15,2.15,0,0,0-4.1-.91l-48,104.72a2.14,2.14,0,0,1-3.92,0L658.39,350.55a2.15,2.15,0,0,0-4.11.86V453.22a2.14,2.14,0,0,0,2.14,2.15H671.1a2.14,2.14,0,0,1,2.14,2.15v3.14a2.14,2.14,0,0,1-2.14,2.14H627.25a2.14,2.14,0,0,1-2.15-2.14v-3.14a2.15,2.15,0,0,1,2.15-2.15h17.9a2.15,2.15,0,0,0,2.15-2.15V343.29a2.15,2.15,0,0,0-2.15-2.15H630.87a2.15,2.15,0,0,1-2.15-2.15v-2.36a2.14,2.14,0,0,1,2.15-2.14l37.36-.11a2.18,2.18,0,0,1,2,1.32l38.84,92.9a2.15,2.15,0,0,0,3.94.06l39.49-84.47a2.15,2.15,0,0,0-1.94-3.06h-6.26a2.15,2.15,0,0,1-2.15-2.14v-2.36a2.15,2.15,0,0,1,2.15-2.14h47.52A2.13,2.13,0,0,1,794,336.63Z" transform="translate(-301.64 -300.05)"/><path class="cls-3" d="M919.68,457.82v3.09a2.09,2.09,0,0,1-2.11,2.11H877.82a2.12,2.12,0,0,1-2.11-2.11v-3.09a2.14,2.14,0,0,1,2.11-2.1h5.28a4.16,4.16,0,0,0,4-5.45l-10.47-32.85-3.35-10.56-15.42-48.09a2.08,2.08,0,0,0-4-.08l-17.39,48.13-3.77,10.47-.35.95L820.8,450.1a4.19,4.19,0,0,0,4,5.62h9a2.11,2.11,0,0,1,2.11,2.1v3.09a2.09,2.09,0,0,1-2.11,2.11H796.07a2.14,2.14,0,0,1-2.11-2.11v-3.09a2.17,2.17,0,0,1,2.11-2.1h5.71a8.49,8.49,0,0,0,7.86-5.37l37.05-96.13a.16.16,0,0,1,0-.09c.09-.21.35-.81.9-2.4.09-.21.22-.51.31-.77v0c5-12.93-7.65-16.54-7.65-16.54h25.42a2.21,2.21,0,0,1,2,1.42L905.68,450a8.45,8.45,0,0,0,8,5.75h3.9A2.11,2.11,0,0,1,919.68,457.82Z" transform="translate(-301.64 -300.05)"/><path class="cls-4" d="M387.24,398.44A12.79,12.79,0,1,0,400,385.65,12.79,12.79,0,0,0,387.24,398.44Z" transform="translate(-301.64 -300.05)"/><g class="cls-5"><path class="cls-6" d="M400,439.74a41.3,41.3,0,1,1,41.3-41.3A41.35,41.35,0,0,1,400,439.74Zm0-77.3a36,36,0,1,0,36,36A36,36,0,0,0,400,362.44Z" transform="translate(-301.64 -300.05)"/><path class="cls-7" d="M400,466.84a68.4,68.4,0,1,1,68.4-68.4A68.48,68.48,0,0,1,400,466.84Zm0-129.72a61.33,61.33,0,1,0,61.33,61.32A61.39,61.39,0,0,0,400,337.12Z" transform="translate(-301.64 -300.05)"/><path class="cls-8" d="M400,496.83a98.39,98.39,0,1,1,98.39-98.39A98.5,98.5,0,0,1,400,496.83Zm0-186.17a87.78,87.78,0,1,0,87.78,87.78A87.88,87.88,0,0,0,400,310.66Z" transform="translate(-301.64 -300.05)"/></g><rect class="cls-3" x="307.28" y="427.92" width="65.4" height="10.61" transform="translate(-510.23 84.86) rotate(-46.84)"/><rect class="cls-3" x="454.87" y="400.52" width="10.61" height="65.4" transform="translate(-473.34 146.14) rotate(-44.45)"/><rect class="cls-3" x="334.68" y="332.1" width="10.61" height="65.4" transform="translate(-459.82 42.33) rotate(-44.44)"/><rect class="cls-3" x="427.47" y="358.23" width="65.4" height="10.6" transform="translate(-421.41 150.59) rotate(-46.85)"/><path class="cls-3" d="M412.82,398.44A12.79,12.79,0,1,0,400,411.23,12.79,12.79,0,0,0,412.82,398.44Z" transform="translate(-301.64 -300.05)"/><g class="cls-9"><path class="cls-10" d="M400,357.14a41.3,41.3,0,1,1-41.31,41.3A41.35,41.35,0,0,1,400,357.14Zm0,77.3a36,36,0,1,0-36-36A36,36,0,0,0,400,434.44Z" transform="translate(-301.64 -300.05)"/><path class="cls-11" d="M400,330a68.4,68.4,0,1,1-68.4,68.4A68.48,68.48,0,0,1,400,330Zm0,129.73a61.33,61.33,0,1,0-61.33-61.33A61.4,61.4,0,0,0,400,459.77Z" transform="translate(-301.64 -300.05)"/><path class="cls-12" d="M400,300.05a98.39,98.39,0,1,1-98.39,98.39A98.5,98.5,0,0,1,400,300.05Zm0,186.17a87.78,87.78,0,1,0-87.79-87.78A87.88,87.88,0,0,0,400,486.22Z" transform="translate(-301.64 -300.05)"/></g><path class="cls-13" d="M514.89,548.69a8,8,0,0,0-2.27-1.19,24.75,24.75,0,0,0-2.53-.74l-2.52-.57a13.5,13.5,0,0,1-2.17-.68,5,5,0,0,1-1.57-1,2.56,2.56,0,0,1-.75-1.52,3.45,3.45,0,0,1,.9-3,4.38,4.38,0,0,1,1.63-1.08,7,7,0,0,1,2.61-.43,7.69,7.69,0,0,1,2,.27,5,5,0,0,1,1.65.82A3.71,3.71,0,0,1,513,541a4.79,4.79,0,0,1,.41,2.06v.5h3.08V543a7.9,7.9,0,0,0-.51-2.84,6.66,6.66,0,0,0-1.56-2.37,7.23,7.23,0,0,0-2.59-1.59,10.07,10.07,0,0,0-3.58-.58,10.87,10.87,0,0,0-3.56.54,7.73,7.73,0,0,0-2.61,1.47,6.31,6.31,0,0,0-1.6,2.16,6.12,6.12,0,0,0-.54,2.5,6.34,6.34,0,0,0,.67,3.05,6,6,0,0,0,1.73,2,8.56,8.56,0,0,0,2.38,1.19c.86.28,1.74.53,2.63.73s1.74.41,2.58.62a9.17,9.17,0,0,1,2.13.8,4.34,4.34,0,0,1,1.42,1.22,3.15,3.15,0,0,1,.51,1.88,4.46,4.46,0,0,1-.3,1.64,3.62,3.62,0,0,1-.92,1.34,4.47,4.47,0,0,1-1.64.93,7.76,7.76,0,0,1-2.5.36,9.18,9.18,0,0,1-2.33-.29,5.18,5.18,0,0,1-1.86-.89,4.62,4.62,0,0,1-1.3-1.58,6.35,6.35,0,0,1-.63-2.42l0-.45h-3.07v.5a8.38,8.38,0,0,0,.67,3.48,6.93,6.93,0,0,0,1.87,2.52,8,8,0,0,0,2.84,1.5,12,12,0,0,0,3.47.48,10.26,10.26,0,0,0,6.52-1.86,6.49,6.49,0,0,0,2.39-5.36,6.56,6.56,0,0,0-.61-3A5.64,5.64,0,0,0,514.89,548.69Z" transform="translate(-301.64 -300.05)"/><path class="cls-13" d="M534.84,554.57a4.26,4.26,0,0,1-1.61,2.53,4.75,4.75,0,0,1-2.93.9,4.83,4.83,0,0,1-2.21-.48,4.45,4.45,0,0,1-1.57-1.27,5.62,5.62,0,0,1-1-1.91,9,9,0,0,1-.32-1.9h12.85v-.5c0-3.09-.67-5.5-2-7.15a7.1,7.1,0,0,0-5.76-2.54,7.71,7.71,0,0,0-3.42.74,7.52,7.52,0,0,0-2.55,2,9.07,9.07,0,0,0-1.59,3,11.33,11.33,0,0,0-.56,3.58,13.07,13.07,0,0,0,.47,3.55,8.12,8.12,0,0,0,1.47,2.92,7,7,0,0,0,2.54,2,9.78,9.78,0,0,0,6.56.27,6.85,6.85,0,0,0,2.21-1.26,7.25,7.25,0,0,0,1.54-1.89,11.06,11.06,0,0,0,1-2.3l.19-.64h-3.21Zm.19-4.73h-9.72a7.79,7.79,0,0,1,.43-1.56,5.93,5.93,0,0,1,1-1.71,4.76,4.76,0,0,1,1.5-1.16,5.17,5.17,0,0,1,4.1,0,4.12,4.12,0,0,1,1.47,1.11,4.81,4.81,0,0,1,.9,1.69A6.19,6.19,0,0,1,535,549.84Z" transform="translate(-301.64 -300.05)"/><path class="cls-13" d="M557.27,544.84a5.34,5.34,0,0,0-2.43-2,8.06,8.06,0,0,0-3-.57,6,6,0,0,0-3.22.85,11.85,11.85,0,0,0-1.62,1.22V542.7H544v17.58H547v-9.43q0-.84.06-1.56a5.71,5.71,0,0,1,.33-1.41,4.06,4.06,0,0,1,.57-1.09,4.57,4.57,0,0,1,2.1-1.57,4.26,4.26,0,0,1,1.46-.24,3.76,3.76,0,0,1,2.92.95,4.47,4.47,0,0,1,.87,3v11.32h2.92V548.93a19.13,19.13,0,0,0-.11-2A4.73,4.73,0,0,0,557.27,544.84Z" transform="translate(-301.64 -300.05)"/><path class="cls-13" d="M575.21,551a12.93,12.93,0,0,0-2.66-.85c-.9-.19-1.75-.41-2.52-.65a5.66,5.66,0,0,1-1.81-.88,1.51,1.51,0,0,1-.59-1.31,2,2,0,0,1,.78-1.68,3.87,3.87,0,0,1,2.47-.67,5,5,0,0,1,2.75.7,3.12,3.12,0,0,1,1.23,2.36l.06.43h3l-.07-.56a6,6,0,0,0-2.23-4.36,7.87,7.87,0,0,0-4.66-1.3,6.89,6.89,0,0,0-4.64,1.45,4.85,4.85,0,0,0-1.69,3.79,4.23,4.23,0,0,0,.91,2.86,5.69,5.69,0,0,0,2.16,1.51,13.29,13.29,0,0,0,2.66.75,22.3,22.3,0,0,1,2.51.56,5.47,5.47,0,0,1,1.8.85,1.61,1.61,0,0,1,.59,1.41,2.14,2.14,0,0,1-.21.93,2.44,2.44,0,0,1-.63.82,3.31,3.31,0,0,1-1.09.59,5.43,5.43,0,0,1-1.67.23,5.06,5.06,0,0,1-3-.78,4.41,4.41,0,0,1-1.43-2.73l-.08-.4h-2.89l0,.53a6.91,6.91,0,0,0,.55,2.38,6.06,6.06,0,0,0,1.36,2,6.13,6.13,0,0,0,2.11,1.31,7.79,7.79,0,0,0,2.78.46,12,12,0,0,0,2.83-.31,7.22,7.22,0,0,0,2.29-1,4.94,4.94,0,0,0,1.56-1.69,4.74,4.74,0,0,0,.57-2.34,4.15,4.15,0,0,0-.9-2.82A6,6,0,0,0,575.21,551Z" transform="translate(-301.64 -300.05)"/><path class="cls-13" d="M597.5,545a7.47,7.47,0,0,0-2.57-2,8.31,8.31,0,0,0-3.61-.74,8.19,8.19,0,0,0-3.57.74,7.44,7.44,0,0,0-2.58,2,8.7,8.7,0,0,0-1.53,2.93,12.4,12.4,0,0,0-.5,3.56,11.54,11.54,0,0,0,.64,4,8.33,8.33,0,0,0,1.76,2.89,7.07,7.07,0,0,0,2.61,1.75,8.93,8.93,0,0,0,3.16.61h0a8.36,8.36,0,0,0,3.36-.66,7.26,7.26,0,0,0,2.6-1.91,8.35,8.35,0,0,0,1.65-2.92,11.56,11.56,0,0,0,.57-3.74,13,13,0,0,0-.48-3.57A8.3,8.3,0,0,0,597.5,545Zm-6.18,0a5.23,5.23,0,0,1,2.37.49,4.33,4.33,0,0,1,1.55,1.33,6.15,6.15,0,0,1,.91,2.06,11,11,0,0,1,.31,2.63,10.07,10.07,0,0,1-.31,2.47,6.76,6.76,0,0,1-.92,2.08,4.59,4.59,0,0,1-1.57,1.43,4.82,4.82,0,0,1-2.34.53,5,5,0,0,1-2.21-.47,4.21,4.21,0,0,1-1.58-1.29,6.17,6.17,0,0,1-1-2.06,10.34,10.34,0,0,1,0-5.18,6.32,6.32,0,0,1,.91-2.08,4.57,4.57,0,0,1,1.58-1.41A4.78,4.78,0,0,1,591.32,545Z" transform="translate(-301.64 -300.05)"/><path class="cls-13" d="M609.6,543.11a5,5,0,0,0-1.36,1.32V542.7h-2.92v17.58h2.92v-8.63a14.06,14.06,0,0,1,.23-2.55,5.34,5.34,0,0,1,.79-2,4,4,0,0,1,1.49-1.31,5.16,5.16,0,0,1,2.45-.46h.51v-3.09h-.5A6.82,6.82,0,0,0,609.6,543.11Z" transform="translate(-301.64 -300.05)"/><path class="cls-13" d="M650.47,542.87a12.86,12.86,0,0,0-1.22-2.64,7.46,7.46,0,0,0-2-2.17,8.94,8.94,0,0,0-1.75-1,9.09,9.09,0,0,0-1.84-.56,13.36,13.36,0,0,0-1.89-.23c-.63,0-1.27,0-1.92,0h-8.37v24h8.37a22.29,22.29,0,0,0,2.33-.12,12.79,12.79,0,0,0,2.25-.43,9.17,9.17,0,0,0,2.09-.9,7.4,7.4,0,0,0,1.86-1.53,9.05,9.05,0,0,0,1.41-2,12.91,12.91,0,0,0,.88-2.26,16.18,16.18,0,0,0,.48-2.4,19.7,19.7,0,0,0,.15-2.4,20.23,20.23,0,0,0-.18-2.57A15.54,15.54,0,0,0,650.47,542.87Zm-15.83-3.78h4.71a26,26,0,0,1,2.8.16,6.33,6.33,0,0,1,2.25.65,5.63,5.63,0,0,1,1.83,1.48,8,8,0,0,1,1.14,2,10,10,0,0,1,.58,2.34,21.14,21.14,0,0,1,.15,2.48,18.43,18.43,0,0,1-.17,2.4,11.13,11.13,0,0,1-.58,2.34,8.2,8.2,0,0,1-1.1,2,4.79,4.79,0,0,1-1.72,1.42,7.56,7.56,0,0,1-2.48.83,20.46,20.46,0,0,1-2.7.17h-4.71Z" transform="translate(-301.64 -300.05)"/><path class="cls-13" d="M661.86,543.11a5,5,0,0,0-1.37,1.32V542.7h-2.92v17.58h2.92v-8.63a13.21,13.21,0,0,1,.24-2.55,5.27,5.27,0,0,1,.78-2,3.9,3.9,0,0,1,1.5-1.31,5.13,5.13,0,0,1,2.45-.46H666v-3.09h-.5A6.79,6.79,0,0,0,661.86,543.11Z" transform="translate(-301.64 -300.05)"/><rect class="cls-13" x="369.98" y="242.65" width="2.92" height="17.58"/><rect class="cls-13" x="369.88" y="236.18" width="3.11" height="3.85"/><polygon class="cls-13" points="386.19 255.94 381.16 242.65 378.01 242.65 384.73 260.23 387.56 260.23 394.38 242.65 391.22 242.65 386.19 255.94"/><path class="cls-13" d="M712.63,554.57a4.29,4.29,0,0,1-1.6,2.53,5.28,5.28,0,0,1-5.15.42,4.45,4.45,0,0,1-1.57-1.27,5.62,5.62,0,0,1-1-1.91,8.38,8.38,0,0,1-.31-1.9h12.84v-.5c0-3.09-.67-5.5-2-7.15a7.08,7.08,0,0,0-5.76-2.54,7.74,7.74,0,0,0-3.42.74,7.52,7.52,0,0,0-2.55,2,9.26,9.26,0,0,0-1.59,3,11.37,11.37,0,0,0-.56,3.58,13.07,13.07,0,0,0,.47,3.55,8.28,8.28,0,0,0,1.47,2.92,6.91,6.91,0,0,0,2.55,2,9.75,9.75,0,0,0,6.55.27,6.85,6.85,0,0,0,2.21-1.26,7.25,7.25,0,0,0,1.54-1.89,11.06,11.06,0,0,0,1-2.3l.19-.64h-3.21Zm.19-4.73H703.1a7.79,7.79,0,0,1,.43-1.56,5.93,5.93,0,0,1,1-1.71,4.76,4.76,0,0,1,1.5-1.16,5.17,5.17,0,0,1,4.1,0,4.24,4.24,0,0,1,1.48,1.11,4.87,4.87,0,0,1,.89,1.69A6.19,6.19,0,0,1,712.82,549.84Z" transform="translate(-301.64 -300.05)"/><path class="cls-13" d="M735.06,544.84a5.28,5.28,0,0,0-2.43-2,8.06,8.06,0,0,0-3-.57,6,6,0,0,0-3.22.85,11.85,11.85,0,0,0-1.62,1.22V542.7h-2.92v17.58h2.92v-9.43q0-.86.06-1.56a5.71,5.71,0,0,1,.33-1.41,4.06,4.06,0,0,1,.57-1.09,4.57,4.57,0,0,1,2.1-1.57,4.26,4.26,0,0,1,1.46-.24,3.8,3.8,0,0,1,2.93.95,4.53,4.53,0,0,1,.86,3v11.32H736V548.93a19.13,19.13,0,0,0-.11-2A4.73,4.73,0,0,0,735.06,544.84Z" transform="translate(-301.64 -300.05)"/><path class="cls-13" d="M774.21,542.87a13.11,13.11,0,0,0-1.21-2.64,7.63,7.63,0,0,0-2-2.17,8.4,8.4,0,0,0-1.75-1,9.2,9.2,0,0,0-1.83-.56,13.68,13.68,0,0,0-1.9-.23c-.63,0-1.26,0-1.91,0h-8.37v24h8.37a22.1,22.1,0,0,0,2.32-.12,12.79,12.79,0,0,0,2.25-.43,9,9,0,0,0,2.09-.9,7.4,7.4,0,0,0,1.86-1.53,8.53,8.53,0,0,0,1.41-2,12.32,12.32,0,0,0,.88-2.26,16.18,16.18,0,0,0,.48-2.4,19.7,19.7,0,0,0,.15-2.4,20.11,20.11,0,0,0-.18-2.57A14.9,14.9,0,0,0,774.21,542.87Zm-2.36,5.35a16.88,16.88,0,0,1-.18,2.4,10.55,10.55,0,0,1-.58,2.34,8,8,0,0,1-1.1,2,4.71,4.71,0,0,1-1.72,1.42,7.59,7.59,0,0,1-2.47.83,20.57,20.57,0,0,1-2.7.17h-4.72V539.09h4.72a26,26,0,0,1,2.79.16,6.33,6.33,0,0,1,2.25.65,5.63,5.63,0,0,1,1.83,1.48,7.74,7.74,0,0,1,1.14,2,9.9,9.9,0,0,1,.58,2.34A21.19,21.19,0,0,1,771.85,548.22Z" transform="translate(-301.64 -300.05)"/><path class="cls-13" d="M793,554.57a4.25,4.25,0,0,1-1.6,2.53,4.8,4.8,0,0,1-2.94.9,4.89,4.89,0,0,1-2.21-.48,4.45,4.45,0,0,1-1.57-1.27,5.43,5.43,0,0,1-1-1.91,7.87,7.87,0,0,1-.32-1.9h12.85v-.5c0-3.09-.66-5.5-2-7.15a7.08,7.08,0,0,0-5.76-2.54,7.77,7.77,0,0,0-3.42.74,7.52,7.52,0,0,0-2.55,2,9.26,9.26,0,0,0-1.59,3,11.33,11.33,0,0,0-.55,3.58,13.08,13.08,0,0,0,.46,3.55,8.28,8.28,0,0,0,1.47,2.92,6.91,6.91,0,0,0,2.55,2,9.75,9.75,0,0,0,6.55.27A6.75,6.75,0,0,0,793.6,559a7.29,7.29,0,0,0,1.55-1.89,10.53,10.53,0,0,0,1-2.3l.19-.64h-3.2Zm.2-4.73h-9.73a8.52,8.52,0,0,1,.43-1.56,5.93,5.93,0,0,1,1-1.71,4.69,4.69,0,0,1,1.51-1.16,5.15,5.15,0,0,1,4.09,0,4.24,4.24,0,0,1,1.48,1.11,5,5,0,0,1,.9,1.69A7.11,7.11,0,0,1,793.21,549.84Z" transform="translate(-301.64 -300.05)"/><path class="cls-13" d="M814.12,554a5,5,0,0,1-1.49,3,4.43,4.43,0,0,1-3.1,1.06,4.74,4.74,0,0,1-2.32-.53,4.62,4.62,0,0,1-1.55-1.43,6.3,6.3,0,0,1-.91-2.08,10.44,10.44,0,0,1-.29-2.44,9.56,9.56,0,0,1,.31-2.42,6.53,6.53,0,0,1,.92-2.12,4.74,4.74,0,0,1,1.56-1.46,4.53,4.53,0,0,1,2.28-.54,4.31,4.31,0,0,1,2.85.93,5.2,5.2,0,0,1,1.6,2.64l.1.37H817l-.09-.58a6.9,6.9,0,0,0-2.41-4.61,7.93,7.93,0,0,0-5-1.48A7.65,7.65,0,0,0,806,543a7.56,7.56,0,0,0-2.55,2.07,9.26,9.26,0,0,0-1.54,3,11.69,11.69,0,0,0-.52,3.46,13.2,13.2,0,0,0,.47,3.56,8.21,8.21,0,0,0,1.47,2.94,7,7,0,0,0,2.54,2,9.63,9.63,0,0,0,6.6.24,6.71,6.71,0,0,0,2.26-1.37,7.12,7.12,0,0,0,1.55-2.1,10.22,10.22,0,0,0,.86-2.64l.11-.59h-3.08Z" transform="translate(-301.64 -300.05)"/><rect class="cls-13" x="521.76" y="236.18" width="3.11" height="3.85"/><rect class="cls-13" x="521.85" y="242.65" width="2.92" height="17.58"/><path class="cls-13" d="M843.68,551a12.74,12.74,0,0,0-2.66-.85c-.9-.19-1.74-.41-2.51-.65a5.82,5.82,0,0,1-1.82-.88,1.53,1.53,0,0,1-.58-1.31,2.05,2.05,0,0,1,.77-1.68,3.91,3.91,0,0,1,2.47-.67,5,5,0,0,1,2.75.7,3.15,3.15,0,0,1,1.24,2.35l0,.44h3l-.07-.56a5.92,5.92,0,0,0-2.24-4.36,7.83,7.83,0,0,0-4.66-1.3,6.85,6.85,0,0,0-4.63,1.45,4.84,4.84,0,0,0-1.69,3.79,4.23,4.23,0,0,0,.91,2.86,5.66,5.66,0,0,0,2.15,1.51,13.58,13.58,0,0,0,2.67.75,22.81,22.81,0,0,1,2.51.56,5.37,5.37,0,0,1,1.8.85,1.63,1.63,0,0,1,.58,1.41,2.25,2.25,0,0,1-.2.93,2.73,2.73,0,0,1-.63.82,3.27,3.27,0,0,1-1.1.59,5.32,5.32,0,0,1-1.66.23,5.12,5.12,0,0,1-3.05-.78,4.46,4.46,0,0,1-1.42-2.73l-.08-.4h-2.89l0,.53a6.69,6.69,0,0,0,.55,2.38,5.91,5.91,0,0,0,1.36,2,6.13,6.13,0,0,0,2.11,1.31,7.76,7.76,0,0,0,2.78.46,11.83,11.83,0,0,0,2.82-.31,7.12,7.12,0,0,0,2.29-1,5,5,0,0,0,1.57-1.69,4.74,4.74,0,0,0,.57-2.34,4.17,4.17,0,0,0-.9-2.82A6.15,6.15,0,0,0,843.68,551Z" transform="translate(-301.64 -300.05)"/><rect class="cls-13" x="551.26" y="236.18" width="3.11" height="3.85"/><rect class="cls-13" x="551.36" y="242.65" width="2.92" height="17.58"/><path class="cls-13" d="M876.28,545a7.38,7.38,0,0,0-2.57-2,8.31,8.31,0,0,0-3.61-.74,8.22,8.22,0,0,0-3.57.74,7.31,7.31,0,0,0-2.57,2,8.36,8.36,0,0,0-1.53,2.93,12.06,12.06,0,0,0-.51,3.56,11.54,11.54,0,0,0,.64,4,8.33,8.33,0,0,0,1.76,2.89,7.07,7.07,0,0,0,2.61,1.75,8.93,8.93,0,0,0,3.16.61h0a8.36,8.36,0,0,0,3.36-.66,7.26,7.26,0,0,0,2.6-1.91,8.35,8.35,0,0,0,1.65-2.92,11.56,11.56,0,0,0,.57-3.74,13,13,0,0,0-.48-3.57A8.3,8.3,0,0,0,876.28,545Zm-1,6.51a10.07,10.07,0,0,1-.31,2.47A6.76,6.76,0,0,1,874,556a4.59,4.59,0,0,1-1.57,1.43,4.82,4.82,0,0,1-2.34.53,5,5,0,0,1-2.21-.47,4.21,4.21,0,0,1-1.58-1.29,6.17,6.17,0,0,1-1-2.06,9.9,9.9,0,0,1-.35-2.69,10.29,10.29,0,0,1,.31-2.49,6.14,6.14,0,0,1,.92-2.08,4.45,4.45,0,0,1,1.57-1.41,4.8,4.8,0,0,1,2.33-.53,5.23,5.23,0,0,1,2.37.49A4.25,4.25,0,0,1,874,546.8a6.15,6.15,0,0,1,.91,2.06A11,11,0,0,1,875.24,551.49Z" transform="translate(-301.64 -300.05)"/><path class="cls-13" d="M897.24,544.84a5.32,5.32,0,0,0-2.44-2,8,8,0,0,0-3-.57,6,6,0,0,0-3.23.85,12.49,12.49,0,0,0-1.62,1.22V542.7H884v17.58h2.92v-9.43c0-.56,0-1.08.07-1.56a5.57,5.57,0,0,1,.32-1.41,4.1,4.1,0,0,1,.58-1.09,4.35,4.35,0,0,1,.9-.92,4.47,4.47,0,0,1,1.2-.65,4.22,4.22,0,0,1,1.46-.24,3.78,3.78,0,0,1,2.92.95,4.47,4.47,0,0,1,.87,3v11.32h2.92V548.93a16.66,16.66,0,0,0-.12-2A4.59,4.59,0,0,0,897.24,544.84Z" transform="translate(-301.64 -300.05)"/><path class="cls-13" d="M917.31,552.57a6,6,0,0,0-2.14-1.55,12.74,12.74,0,0,0-2.66-.85c-.9-.19-1.74-.41-2.51-.65a5.82,5.82,0,0,1-1.82-.88,1.53,1.53,0,0,1-.58-1.31,2.05,2.05,0,0,1,.77-1.68,3.91,3.91,0,0,1,2.47-.67,5,5,0,0,1,2.75.7,3.13,3.13,0,0,1,1.24,2.36l0,.43h3l-.07-.56a6,6,0,0,0-2.24-4.36,7.85,7.85,0,0,0-4.66-1.3,6.85,6.85,0,0,0-4.63,1.45,4.85,4.85,0,0,0-1.69,3.79,4.18,4.18,0,0,0,.91,2.86,5.66,5.66,0,0,0,2.15,1.51,13.68,13.68,0,0,0,2.66.75,21.82,21.82,0,0,1,2.51.56,5.53,5.53,0,0,1,1.81.85,1.63,1.63,0,0,1,.58,1.41,2.14,2.14,0,0,1-.21.93,2.44,2.44,0,0,1-.63.82,3.12,3.12,0,0,1-1.09.59,5.32,5.32,0,0,1-1.66.23,5.1,5.1,0,0,1-3.05-.78,4.51,4.51,0,0,1-1.43-2.73l-.08-.4h-2.88l0,.53a6.69,6.69,0,0,0,.55,2.38,5.91,5.91,0,0,0,1.36,2,6,6,0,0,0,2.1,1.31,7.85,7.85,0,0,0,2.79.46,11.83,11.83,0,0,0,2.82-.31,7.12,7.12,0,0,0,2.29-1,4.85,4.85,0,0,0,1.56-1.69,4.64,4.64,0,0,0,.58-2.34A4.15,4.15,0,0,0,917.31,552.57Z" transform="translate(-301.64 -300.05)"/></svg>